<svg xmlns="http://www.w3.org/2000/svg" viewBox="0 0 56 52" width="56" height="52">
  <defs>
    <linearGradient id="h" x1="0" y1="1" x2="1" y2="0">
      <stop offset="0" stop-color="#6FA84E"/>
      <stop offset="0.5" stop-color="#16868A"/>
      <stop offset="1" stop-color="#0E2C54"/>
    </linearGradient>
  </defs>
  <path d="M28 47 C 9 34, 2 22, 12 13 C 19 6.5, 27 10, 28 18 C 29 10, 37 6.5, 44 13 C 54 22, 47 34, 28 47 Z"
        fill="none" stroke="url(#h)" stroke-width="3.4" stroke-linecap="round" stroke-linejoin="round"/>
  <polygon points="28,17 30.4,23.2 37,23.6 31.8,27.7 33.6,34 28,30.4 22.4,34 24.2,27.7 19,23.6 25.6,23.2" fill="#0E2C54"/>
  <polygon points="17,29 18.2,32.2 21.6,32.4 18.9,34.5 19.8,37.8 17,35.9 14.2,37.8 15.1,34.5 12.4,32.4 15.8,32.2" fill="#16868A"/>
</svg>
